<mxfile host="app.diagrams.net" modified="2023-04-11T12:54:05.026Z" agent="Mozilla/5.0 (X11; Linux x86_64) AppleWebKit/537.36 (KHTML, like Gecko) Chrome/108.0.0.0 Safari/537.36" version="21.1.5" etag="JeLF7ex3BsRoKeOys7ek" type="github">
  <diagram name="PÃ¡gina-1" id="S4XyJac7agwaKQVyaj5W">
    <mxGraphModel>
      <root>
        <mxCell id="0" />
        <mxCell id="1" parent="0" />
      </root>
    </mxGraphModel>
  </diagram>
</mxfile>
